<svg id="Layer_1" data-name="Layer 1" xmlns="http://www.w3.org/2000/svg" viewBox="0 0 512 512"><defs><style>.cls-1{fill:#f9f9f9;}.cls-2{fill:#f7f9fc;}.cls-3{fill:#fff;}</style></defs><title>instagram white</title><path class="cls-1" d="M305,256a49,49,0,1,1-49-49A49,49,0,0,1,305,256Z"/><path class="cls-2" d="M370.59,169.3a48.68,48.68,0,0,0-27.9-27.9c-5.18-2-13-4.41-27.29-5.06-15.5-.71-20.15-.86-59.4-.86s-43.9.15-59.4.86c-14.33.66-22.12,3.05-27.29,5.06a48.7,48.7,0,0,0-27.9,27.9c-2,5.18-4.41,13-5.06,27.3-.71,15.5-.86,20.15-.86,59.4s.15,43.9.86,59.4c.65,14.33,3,22.11,5.06,27.29a48.68,48.68,0,0,0,27.9,27.9c5.18,2,13,4.41,27.3,5.06,15.5.71,20.14.86,59.4.86s43.91-.15,59.4-.86c14.33-.65,22.12-3,27.3-5.06a48.68,48.68,0,0,0,27.9-27.9c2-5.18,4.41-13,5.06-27.29.71-15.5.86-20.15.86-59.4s-.15-43.9-.86-59.4C375,182.27,372.61,174.48,370.59,169.3ZM256,331.48A75.48,75.48,0,1,1,331.48,256,75.48,75.48,0,0,1,256,331.48Zm78.47-136.31a17.64,17.64,0,1,1,17.64-17.64A17.64,17.64,0,0,1,334.47,195.17Z"/><path class="cls-3" d="M256,0C114.64,0,0,114.64,0,256S114.64,512,256,512,512,397.36,512,256,397.36,0,256,0ZM402.11,316.61c-.71,15.65-3.2,26.33-6.83,35.68a75.16,75.16,0,0,1-43,43c-9.35,3.63-20,6.12-35.68,6.83S295.93,403,256,403s-44.93-.17-60.61-.89-26.33-3.2-35.68-6.83a75.16,75.16,0,0,1-43-43c-3.63-9.35-6.12-20-6.83-35.68S109,295.92,109,256s.17-44.93.89-60.61,3.2-26.33,6.83-35.68a75.22,75.22,0,0,1,43-43c9.35-3.63,20-6.12,35.68-6.83S216.08,109,256,109s44.93.17,60.61.89,26.33,3.2,35.68,6.82a75.19,75.19,0,0,1,43,43c3.64,9.35,6.12,20,6.84,35.68S403,216.08,403,256,402.83,300.93,402.11,316.61Z"/></svg>